<svg width="800" height="400" xmlns="http://www.w3.org/2000/svg">
  <style>
    /* Dag/Nacht cycle:  60 seconden totaal (10 sec per fase x 6 fases) */
    @keyframes dayNightCycle {
      0% { fill: url(#skyDay); }          /* Dag 1 */
      16.66% { fill: url(#skyNight); }    /* Nacht 1 */
      33.32% { fill: url(#skyDay); }      /* Dag 2 */
      49.98% { fill: url(#skyNight); }    /* Nacht 2 */
      66.64% { fill: url(#skyRainDay); }  /* Dag 3 (Regen) */
      83.30% { fill: url(#skyNight); }    /* Nacht 3 */
      100% { fill: url(#skyDay); }        /* Terug naar Dag 1 */
    }
    
    /* Zon positie en opacity - smooth!  */
    @keyframes sunMove {
      0% { cx: 700px; cy: 80px; opacity: 1; }      /* Dag 1 - Zichtbaar */
      16% { cx: 700px; cy: 80px; opacity: 0.5; }   /* Gaat onder */
      16.66% { cx: 700px; cy: 80px; opacity: 0; }  /* Nacht 1 - Weg */
      32% { cx: 700px; cy: 80px; opacity:  0; }     /* Nog weg */
      33.32% { cx: 700px; cy: 80px; opacity:  1; }  /* Dag 2 - Komt op */
      49% { cx: 700px; cy: 80px; opacity: 0.5; }   /* Gaat onder */
      49.98% { cx: 700px; cy:  80px; opacity: 0; }  /* Nacht 2 - Weg */
      66% { cx: 700px; cy: 80px; opacity: 0; }     /* Nog weg */
      66.64% { cx: 700px; cy: 80px; opacity: 0.4; }/* Dag 3 (Regen) - Zwak */
      82. 5% { cx: 700px; cy: 80px; opacity:  0.2; } /* Gaat onder */
      83.30% { cx: 700px; cy: 80px; opacity: 0; }  /* Nacht 3 - Weg */
      99% { cx: 700px; cy: 80px; opacity:  0; }     /* Nog weg */
      100% { cx: 700px; cy: 80px; opacity: 1; }    /* Dag 1 - Komt op */
    }
    
    /* Maan positie en opacity - smooth! */
    @keyframes moonMove {
      0% { cx: 700px; cy:  80px; opacity: 0; }      /* Dag 1 - Weg */
      16% { cx: 700px; cy: 80px; opacity: 0; }     /* Nog weg */
      16.66% { cx: 700px; cy: 80px; opacity:  1; }  /* Nacht 1 - Komt op */
      32.5% { cx: 700px; cy: 80px; opacity: 0.5; } /* Gaat onder */
      33.32% { cx: 700px; cy: 80px; opacity: 0; }  /* Dag 2 - Weg */
      49% { cx: 700px; cy:  80px; opacity: 0; }     /* Nog weg */
      49.98% { cx: 700px; cy:  80px; opacity: 1; }  /* Nacht 2 - Komt op */
      66% { cx: 700px; cy: 80px; opacity: 0.5; }   /* Gaat onder */
      66.64% { cx: 700px; cy: 80px; opacity: 0; }  /* Dag 3 (Regen) - Weg */
      82.5% { cx: 700px; cy: 80px; opacity: 0; }   /* Nog weg */
      83.30% { cx: 700px; cy: 80px; opacity: 1; }  /* Nacht 3 - Komt op */
      99.5% { cx: 700px; cy: 80px; opacity: 0.5; } /* Gaat onder */
      100% { cx:  700px; cy: 80px; opacity: 0; }    /* Dag 1 - Weg */
    }
    
    /* Sterren - alleen 's nachts */
    @keyframes starsShow {
      0% { opacity:  0; }
      16.66% { opacity: 1; }
      33.32% { opacity: 0; }
      49.98% { opacity: 1; }
      66.64% { opacity: 0; }
      83.30% { opacity: 1; }
      100% { opacity: 0; }
    }
    
    /* Regen animatie - HARDE REGEN! */
    @keyframes rainFall {
      0% { transform: translateY(-50px); opacity: 0; }
      5% { opacity: 0.9; }
      100% { transform: translateY(450px); opacity: 0.7; }
    }
    
    @keyframes rainShow {
      0% { opacity:  0; }
      66.63% { opacity: 0; }
      66.64% { opacity: 1; }              /* Regen start op dag 5 */
      83.29% { opacity: 1; }
      83.30% { opacity: 0; }              /* Regen stopt */
      100% { opacity: 0; }
    }
    
    /* Bergen en bomen bewegen naar links (sneller!) */
    @keyframes scrollLeft {
      from { transform: translateX(0); }
      to { transform: translateX(-800px); }
    }
    
    /* Dino poten animatie */
    @keyframes legMove1 {
      0%, 100% { transform: rotate(0deg); }
      50% { transform: rotate(25deg); }
    }
    
    @keyframes legMove2 {
      0%, 100% { transform: rotate(0deg); }
      50% { transform: rotate(-25deg); }
    }
    
    @keyframes tailWag {
      0%, 100% { transform: rotate(-3deg); }
      50% { transform: rotate(3deg); }
    }
    
    @keyframes cloudMove {
      from { transform: translateX(0); }
      to { transform: translateX(-1600px); }
    }
    
    . sky {
      animation: dayNightCycle 60s infinite;
    }
    
    .sun {
      animation: sunMove 60s infinite;
    }
    
    .moon {
      animation: moonMove 60s infinite;
    }
    
    . stars {
      animation: starsShow 60s infinite;
    }
    
    .rain-container {
      animation: rainShow 60s infinite;
    }
    
    .rain {
      animation: rainFall 0.5s infinite linear;
    }
    
    .mountains {
      animation: scrollLeft 4s infinite linear;
    }
    
    .trees-container {
      animation: scrollLeft 3s infinite linear;
    }
    
    .ground-details {
      animation: scrollLeft 2s infinite linear;
    }
    
    .clouds {
      animation: cloudMove 8s infinite linear;
    }
    
    .leg1 {
      transform-origin: 95px 210px;
      animation: legMove1 0.5s infinite ease-in-out;
    }
    
    .leg2 {
      transform-origin: 65px 210px;
      animation: legMove2 0.5s infinite ease-in-out;
    }
    
    .tail {
      transform-origin: 30px 200px;
      animation: tailWag 0.6s infinite ease-in-out;
    }
  </style>

  <defs>
    <!-- Dag lucht -->
    <linearGradient id="skyDay" x1="0%" y1="0%" x2="0%" y2="100%">
      <stop offset="0%" style="stop-color:#87CEEB;stop-opacity: 1" />
      <stop offset="100%" style="stop-color:#E0F6FF;stop-opacity:1" />
    </linearGradient>
    
    <!-- Nacht lucht - DONKER!  -->
    <linearGradient id="skyNight" x1="0%" y1="0%" x2="0%" y2="100%">
      <stop offset="0%" style="stop-color:#000428;stop-opacity:1" />
      <stop offset="100%" style="stop-color:#004e92;stop-opacity:1" />
    </linearGradient>
    
    <!-- Regen dag lucht (donkerder/grijs) -->
    <linearGradient id="skyRainDay" x1="0%" y1="0%" x2="0%" y2="100%">
      <stop offset="0%" style="stop-color:#4A5568;stop-opacity:1" />
      <stop offset="100%" style="stop-color:#718096;stop-opacity:1" />
    </linearGradient>
    
    <linearGradient id="groundGradient" x1="0%" y1="0%" x2="0%" y2="100%">
      <stop offset="0%" style="stop-color:#8BC34A;stop-opacity:1" />
      <stop offset="100%" style="stop-color:#689F38;stop-opacity:1" />
    </linearGradient>
  </defs>

  <!-- Sky met dag/nacht cycle -->
  <rect class="sky" width="800" height="400" fill="url(#skyDay)" />
  
  <!-- Sterren (alleen zichtbaar 's nachts) -->
  <g class="stars">
    <circle cx="80" cy="50" r="2" fill="white" opacity="0.9"/>
    <circle cx="120" cy="60" r="2.5" fill="white" opacity="0.8"/>
    <circle cx="180" cy="90" r="1.5" fill="white" opacity="0.9"/>
    <circle cx="220" cy="45" r="2" fill="white" opacity="0.8"/>
    <circle cx="250" cy="70" r="2" fill="white" opacity="0.9"/>
    <circle cx="290" cy="100" r="1.5" fill="white" opacity="0.8"/>
    <circle cx="320" cy="50" r="2" fill="white" opacity="0.9"/>
    <circle cx="360" cy="80" r="2.5" fill="white" opacity="0.8"/>
    <circle cx="380" cy="85" r="2" fill="white" opacity="0.9"/>
    <circle cx="420" cy="55" r="1.5" fill="white" opacity="0.8"/>
    <circle cx="450" cy="65" r="2" fill="white" opacity="0.9"/>
    <circle cx="490" cy="95" r="2. 5" fill="white" opacity="0.8"/>
    <circle cx="520" cy="95" r="2" fill="white" opacity="0.9"/>
    <circle cx="560" cy="70" r="1.5" fill="white" opacity="0.8"/>
    <circle cx="600" cy="50" r="2" fill="white" opacity="0.9"/>
    <circle cx="150" cy="120" r="1.5" fill="white" opacity="0.8"/>
    <circle cx="200" cy="110" r="2" fill="white" opacity="0.9"/>
    <circle cx="280" cy="110" r="2" fill="white" opacity="0.8"/>
    <circle cx="340" cy="120" r="1.5" fill="white" opacity="0.9"/>
    <circle cx="420" cy="120" r="2" fill="white" opacity="0.8"/>
    <circle cx="480" cy="115" r="1.5" fill="white" opacity="0.9"/>
    <circle cx="550" cy="105" r="2" fill="white" opacity="0.8"/>
    <circle cx="620" cy="90" r="2. 5" fill="white" opacity="0.9"/>
    <circle cx="680" cy="110" r="2" fill="white" opacity="0.8"/>
    <circle cx="740" cy="120" r="1.5" fill="white" opacity="0.9"/>
  </g>
  
  <!-- Bergen (bewegen naar links) -->
  <g class="mountains">
    <path d="M 0,250 L 100,180 L 200,220 L 300,160 L 400,200 L 500,170 L 600,210 L 700,180 L 800,220 L 800,300 L 0,300 Z" 
          fill="#A5D6A7" opacity="0.4"/>
    <path d="M 0,270 L 150,200 L 300,240 L 450,190 L 600,230 L 800,210 L 800,300 L 0,300 Z" 
          fill="#81C784" opacity="0.5"/>
    <!-- Duplicate voor seamless loop -->
    <path d="M 800,250 L 900,180 L 1000,220 L 1100,160 L 1200,200 L 1300,170 L 1400,210 L 1500,180 L 1600,220 L 1600,300 L 800,300 Z" 
          fill="#A5D6A7" opacity="0.4"/>
    <path d="M 800,270 L 950,200 L 1100,240 L 1250,190 L 1400,230 L 1600,210 L 1600,300 L 800,300 Z" 
          fill="#81C784" opacity="0.5"/>
  </g>
  
  <!-- Zon - SMOOTH transitions! -->
  <g class="sun">
    <circle cx="700" cy="80" r="50" fill="#FFD54F" opacity="0.8"/>
    <circle cx="700" cy="80" r="60" fill="#FFD54F" opacity="0.3"/>
  </g>
  
  <!-- Maan - SMOOTH transitions!  -->
  <g class="moon">
    <circle cx="700" cy="80" r="45" fill="#F0F0F0" opacity="0.95"/>
    <circle cx="715" cy="75" r="35" fill="#000428" opacity="0.2"/>
    <circle cx="695" cy="85" r="8" fill="#D0D0D0" opacity="0.4"/>
    <circle cx="710" cy="90" r="6" fill="#D0D0D0" opacity="0.3"/>
  </g>
  
  <!-- Wolken (bewegen) -->
  <g class="clouds">
    <g>
      <ellipse cx="100" cy="100" rx="50" ry="30" fill="white" opacity="0.6"/>
      <ellipse cx="130" cy="95" rx="60" ry="35" fill="white" opacity="0.6"/>
      <ellipse cx="160" cy="100" rx="45" ry="28" fill="white" opacity="0.6"/>
    </g>
    <g>
      <ellipse cx="400" cy="130" rx="45" ry="25" fill="white" opacity="0.5"/>
      <ellipse cx="425" cy="127" rx="50" ry="28" fill="white" opacity="0.5"/>
      <ellipse cx="450" cy="130" rx="40" ry="23" fill="white" opacity="0.5"/>
    </g>
    <!-- Duplicates voor loop -->
    <g>
      <ellipse cx="900" cy="100" rx="50" ry="30" fill="white" opacity="0.6"/>
      <ellipse cx="930" cy="95" rx="60" ry="35" fill="white" opacity="0.6"/>
      <ellipse cx="960" cy="100" rx="45" ry="28" fill="white" opacity="0.6"/>
    </g>
    <g>
      <ellipse cx="1200" cy="130" rx="45" ry="25" fill="white" opacity="0.5"/>
      <ellipse cx="1225" cy="127" rx="50" ry="28" fill="white" opacity="0.5"/>
      <ellipse cx="1250" cy="130" rx="40" ry="23" fill="white" opacity="0.5"/>
    </g>
  </g>
  
  <!-- HARDE REGEN!  Veel meer druppels!  -->
  <g class="rain-container">
    <line class="rain" x1="20" y1="0" x2="17" y2="25" stroke="#A5C9E8" stroke-width="2. 5" opacity="0.8" style="animation-delay: 0s;"/>
    <line class="rain" x1="40" y1="0" x2="37" y2="25" stroke="#A5C9E8" stroke-width="2.5" opacity="0.8" style="animation-delay: 0.1s;"/>
    <line class="rain" x1="60" y1="0" x2="57" y2="25" stroke="#A5C9E8" stroke-width="2.5" opacity="0.8" style="animation-delay: 0.05s;"/>
    <line class="rain" x1="80" y1="0" x2="77" y2="25" stroke="#A5C9E8" stroke-width="2.5" opacity="0.8" style="animation-delay: 0.15s;"/>
    <line class="rain" x1="100" y1="0" x2="97" y2="25" stroke="#A5C9E8" stroke-width="2.5" opacity="0.8" style="animation-delay: 0.08s;"/>
    <line class="rain" x1="120" y1="0" x2="117" y2="25" stroke="#A5C9E8" stroke-width="2.5" opacity="0.8" style="animation-delay: 0.18s;"/>
    <line class="rain" x1="140" y1="0" x2="137" y2="25" stroke="#A5C9E8" stroke-width="2.5" opacity="0.8" style="animation-delay: 0.03s;"/>
    <line class="rain" x1="160" y1="0" x2="157" y2="25" stroke="#A5C9E8" stroke-width="2.5" opacity="0.8" style="animation-delay: 0.13s;"/>
    <line class="rain" x1="180" y1="0" x2="177" y2="25" stroke="#A5C9E8" stroke-width="2.5" opacity="0.8" style="animation-delay: 0.21s;"/>
    <line class="rain" x1="200" y1="0" x2="197" y2="25" stroke="#A5C9E8" stroke-width="2.5" opacity="0.8" style="animation-delay: 0.07s;"/>
    <line class="rain" x1="220" y1="0" x2="217" y2="25" stroke="#A5C9E8" stroke-width="2.5" opacity="0.8" style="animation-delay: 0.17s;"/>
    <line class="rain" x1="240" y1="0" x2="237" y2="25" stroke="#A5C9E8" stroke-width="2.5" opacity="0.8" style="animation-delay: 0.11s;"/>
    <line class="rain" x1="260" y1="0" x2="257" y2="25" stroke="#A5C9E8" stroke-width="2.5" opacity="0.8" style="animation-delay: 0.04s;"/>
    <line class="rain" x1="280" y1="0" x2="277" y2="25" stroke="#A5C9E8" stroke-width="2.5" opacity="0.8" style="animation-delay: 0.14s;"/>
    <line class="rain" x1="300" y1="0" x2="297" y2="25" stroke="#A5C9E8" stroke-width="2.5" opacity="0.8" style="animation-delay: 0.09s;"/>
    <line class="rain" x1="320" y1="0" x2="317" y2="25" stroke="#A5C9E8" stroke-width="2.5" opacity="0.8" style="animation-delay: 0.19s;"/>
    <line class="rain" x1="340" y1="0" x2="337" y2="25" stroke="#A5C9E8" stroke-width="2.5" opacity="0.8" style="animation-delay: 0.06s;"/>
    <line class="rain" x1="360" y1="0" x2="357" y2="25" stroke="#A5C9E8" stroke-width="2.5" opacity="0.8" style="animation-delay: 0.16s;"/>
    <line class="rain" x1="380" y1="0" x2="377" y2="25" stroke="#A5C9E8" stroke-width="2.5" opacity="0.8" style="animation-delay: 0.12s;"/>
    <line class="rain" x1="400" y1="0" x2="397" y2="25" stroke="#A5C9E8" stroke-width="2.5" opacity="0.8" style="animation-delay: 0.02s;"/>
    <line class="rain" x1="420" y1="0" x2="417" y2="25" stroke="#A5C9E8" stroke-width="2.5" opacity="0.8" style="animation-delay: 0.22s;"/>
    <line class="rain" x1="440" y1="0" x2="437" y2="25" stroke="#A5C9E8" stroke-width="2.5" opacity="0.8" style="animation-delay: 0.10s;"/>
    <line class="rain" x1="460" y1="0" x2="457" y2="25" stroke="#A5C9E8" stroke-width="2.5" opacity="0.8" style="animation-delay: 0.20s;"/>
    <line class="rain" x1="480" y1="0" x2="477" y2="25" stroke="#A5C9E8" stroke-width="2.5" opacity="0.8" style="animation-delay: 0.01s;"/>
    <line class="rain" x1="500" y1="0" x2="497" y2="25" stroke="#A5C9E8" stroke-width="2.5" opacity="0.8" style="animation-delay: 0.23s;"/>
    <line class="rain" x1="520" y1="0" x2="517" y2="25" stroke="#A5C9E8" stroke-width="2.5" opacity="0.8" style="animation-delay: 0.11s;"/>
    <line class="rain" x1="540" y1="0" x2="537" y2="25" stroke="#A5C9E8" stroke-width="2.5" opacity="0.8" style="animation-delay: 0.24s;"/>
    <line class="rain" x1="560" y1="0" x2="557" y2="25" stroke="#A5C9E8" stroke-width="2.5" opacity="0.8" style="animation-delay: 0.04s;"/>
    <line class="rain" x1="580" y1="0" x2="577" y2="25" stroke="#A5C9E8" stroke-width="2.5" opacity="0.8" style="animation-delay: 0.14s;"/>
    <line class="rain" x1="600" y1="0" x2="597" y2="25" stroke="#A5C9E8" stroke-width="2.5" opacity="0.8" style="animation-delay: 0.07s;"/>
    <line class="rain" x1="620" y1="0" x2="617" y2="25" stroke="#A5C9E8" stroke-width="2.5" opacity="0.8" style="animation-delay: 0.17s;"/>
    <line class="rain" x1="640" y1="0" x2="637" y2="25" stroke="#A5C9E8" stroke-width="2.5" opacity="0.8" style="animation-delay: 0.09s;"/>
    <line class="rain" x1="660" y1="0" x2="657" y2="25" stroke="#A5C9E8" stroke-width="2.5" opacity="0.8" style="animation-delay: 0.19s;"/>
    <line class="rain" x1="680" y1="0" x2="677" y2="25" stroke="#A5C9E8" stroke-width="2.5" opacity="0.8" style="animation-delay: 0.05s;"/>
    <line class="rain" x1="700" y1="0" x2="697" y2="25" stroke="#A5C9E8" stroke-width="2.5" opacity="0.8" style="animation-delay: 0.15s;"/>
    <line class="rain" x1="720" y1="0" x2="717" y2="25" stroke="#A5C9E8" stroke-width="2.5" opacity="0.8" style="animation-delay: 0.12s;"/>
    <line class="rain" x1="740" y1="0" x2="737" y2="25" stroke="#A5C9E8" stroke-width="2.5" opacity="0.8" style="animation-delay: 0.22s;"/>
    <line class="rain" x1="760" y1="0" x2="757" y2="25" stroke="#A5C9E8" stroke-width="2.5" opacity="0.8" style="animation-delay: 0.03s;"/>
    <line class="rain" x1="780" y1="0" x2="777" y2="25" stroke="#A5C9E8" stroke-width="2.5" opacity="0.8" style="animation-delay: 0.13s;"/>
    
    <!-- Extra laag voor nog hardere regen -->
    <line class="rain" x1="30" y1="0" x2="27" y2="25" stroke="#A5C9E8" stroke-width="2" opacity="0.7" style="animation-delay: 0.25s;"/>
    <line class="rain" x1="70" y1="0" x2="67" y2="25" stroke="#A5C9E8" stroke-width="2" opacity="0.7" style="animation-delay: 0.27s;"/>
    <line class="rain" x1="110" y1="0" x2="107" y2="25" stroke="#A5C9E8" stroke-width="2" opacity="0.7" style="animation-delay: 0.29s;"/>
    <line class="rain" x1="150" y1="0" x2="147" y2="25" stroke="#A5C9E8" stroke-width="2" opacity="0.7" style="animation-delay:  0.26s;"/>
    <line class="rain" x1="190" y1="0" x2="187" y2="25" stroke="#A5C9E8" stroke-width="2" opacity="0.7" style="animation-delay: 0.28s;"/>
    <line class="rain" x1="230" y1="0" x2="227" y2="25" stroke="#A5C9E8" stroke-width="2" opacity="0.7" style="animation-delay:  0.30s;"/>
    <line class="rain" x1="270" y1="0" x2="267" y2="25" stroke="#A5C9E8" stroke-width="2" opacity="0.7" style="animation-delay: 0.31s;"/>
    <line class="rain" x1="310" y1="0" x2="307" y2="25" stroke="#A5C9E8" stroke-width="2" opacity="0.7" style="animation-delay: 0.33s;"/>
    <line class="rain" x1="350" y1="0" x2="347" y2="25" stroke="#A5C9E8" stroke-width="2" opacity="0.7" style="animation-delay: 0.32s;"/>
    <line class="rain" x1="390" y1="0" x2="387" y2="25" stroke="#A5C9E8" stroke-width="2" opacity="0.7" style="animation-delay: 0.34s;"/>
    <line class="rain" x1="430" y1="0" x2="427" y2="25" stroke="#A5C9E8" stroke-width="2" opacity="0.7" style="animation-delay:  0.36s;"/>
    <line class="rain" x1="470" y1="0" x2="467" y2="25" stroke="#A5C9E8" stroke-width="2" opacity="0.7" style="animation-delay: 0.35s;"/>
    <line class="rain" x1="510" y1="0" x2="507" y2="25" stroke="#A5C9E8" stroke-width="2" opacity="0.7" style="animation-delay: 0.37s;"/>
    <line class="rain" x1="550" y1="0" x2="547" y2="25" stroke="#A5C9E8" stroke-width="2" opacity="0.7" style="animation-delay: 0.38s;"/>
    <line class="rain" x1="590" y1="0" x2="587" y2="25" stroke="#A5C9E8" stroke-width="2" opacity="0.7" style="animation-delay:  0.39s;"/>
    <line class="rain" x1="630" y1="0" x2="627" y2="25" stroke="#A5C9E8" stroke-width="2" opacity="0.7" style="animation-delay: 0.40s;"/>
    <line class="rain" x1="670" y1="0" x2="667" y2="25" stroke="#A5C9E8" stroke-width="2" opacity="0.7" style="animation-delay: 0.41s;"/>
    <line class="rain" x1="710" y1="0" x2="707" y2="25" stroke="#A5C9E8" stroke-width="2" opacity="0.7" style="animation-delay:  0.42s;"/>
    <line class="rain" x1="750" y1="0" x2="747" y2="25" stroke="#A5C9E8" stroke-width="2" opacity="0.7" style="animation-delay: 0.43s;"/>
    <line class="rain" x1="790" y1="0" x2="787" y2="25" stroke="#A5C9E8" stroke-width="2" opacity="0.7" style="animation-delay: 0.44s;"/>
  </g>
  
  <!-- Ground -->
  <rect x="0" y="280" width="800" height="120" fill="url(#groundGradient)" />
  
  <!-- Gras en bloemen (bewegen snel) -->
  <g class="ground-details">
    <g opacity="0.6">
      <path d="M 50,280 Q 52,270 54,280" fill="#558B2F" />
      <path d="M 100,280 Q 102,268 104,280" fill="#558B2F" />
      <path d="M 150,280 Q 152,272 154,280" fill="#558B2F" />
      <path d="M 200,280 Q 202,269 204,280" fill="#558B2F" />
      <path d="M 250,280 Q 252,271 254,280" fill="#558B2F" />
      <path d="M 300,280 Q 302,268 304,280" fill="#558B2F" />
      <path d="M 350,280 Q 352,273 354,280" fill="#558B2F" />
      <path d="M 400,280 Q 402,270 404,280" fill="#558B2F" />
      <path d="M 450,280 Q 452,272 454,280" fill="#558B2F" />
      <path d="M 500,280 Q 502,269 504,280" fill="#558B2F" />
      <path d="M 550,280 Q 552,271 554,280" fill="#558B2F" />
      <path d="M 600,280 Q 602,268 604,280" fill="#558B2F" />
      <path d="M 650,280 Q 652,273 654,280" fill="#558B2F" />
      <path d="M 700,280 Q 702,270 704,280" fill="#558B2F" />
      <path d="M 750,280 Q 752,272 754,280" fill="#558B2F" />
    </g>
    <circle cx="80" cy="278" r="3" fill="#FF5252"/>
    <circle cx="180" cy="280" r="3" fill="#FFD740"/>
    <circle cx="280" cy="279" r="3" fill="#FF4081"/>
    <circle cx="380" cy="278" r="3" fill="#FFD740"/>
    <circle cx="480" cy="280" r="3" fill="#FF5252"/>
    <circle cx="580" cy="279" r="3" fill="#FF4081"/>
    <circle cx="680" cy="278" r="3" fill="#FFD740"/>
    <!-- Duplicate -->
    <g opacity="0.6">
      <path d="M 850,280 Q 852,270 854,280" fill="#558B2F" />
      <path d="M 900,280 Q 902,268 904,280" fill="#558B2F" />
      <path d="M 950,280 Q 952,272 954,280" fill="#558B2F" />
      <path d="M 1000,280 Q 1002,269 1004,280" fill="#558B2F" />
      <path d="M 1050,280 Q 1052,271 1054,280" fill="#558B2F" />
      <path d="M 1100,280 Q 1102,268 1104,280" fill="#558B2F" />
      <path d="M 1150,280 Q 1152,273 1154,280" fill="#558B2F" />
      <path d="M 1200,280 Q 1202,270 1204,280" fill="#558B2F" />
    </g>
    <circle cx="880" cy="278" r="3" fill="#FF5252"/>
    <circle cx="980" cy="280" r="3" fill="#FFD740"/>
    <circle cx="1080" cy="279" r="3" fill="#FF4081"/>
    <circle cx="1180" cy="278" r="3" fill="#FFD740"/>
  </g>
  
  <!-- Bomen en struiken (bewegen naar links) -->
  <g class="trees-container">
    <!-- Struiken -->
    <ellipse cx="100" cy="275" rx="45" ry="25" fill="#7CB342" opacity="0.8"/>
    <ellipse cx="130" cy="278" rx="35" ry="20" fill="#8BC34A" opacity="0.8"/>
    <ellipse cx="400" cy="277" rx="50" ry="23" fill="#7CB342" opacity="0.8"/>
    <ellipse cx="440" cy="280" rx="40" ry="20" fill="#8BC34A" opacity="0.8"/>
    <ellipse cx="650" cy="276" rx="45" ry="22" fill="#7CB342" opacity="0.8"/>
    
    <!-- Boom 1 -->
    <rect x="200" y="220" width="15" height="60" fill="#6D4C41" rx="2"/>
    <ellipse cx="207" cy="215" rx="35" ry="40" fill="#66BB6A"/>
    <ellipse cx="207" cy="200" rx="30" ry="35" fill="#81C784"/>
    <ellipse cx="207" cy="190" rx="25" ry="28" fill="#A5D6A7"/>
    
    <!-- Boom 2 -->
    <rect x="500" y="230" width="18" height="50" fill="#6D4C41" rx="2"/>
    <ellipse cx="509" cy="225" rx="40" ry="45" fill="#66BB6A"/>
    <ellipse cx="509" cy="208" rx="35" ry="38" fill="#81C784"/>
    <ellipse cx="509" cy="195" rx="28" ry="30" fill="#A5D6A7"/>
    
    <!-- Boom 3 -->
    <rect x="720" y="240" width="20" height="40" fill="#5D4037" rx="2"/>
    <ellipse cx="730" cy="235" rx="45" ry="48" fill="#558B2F"/>
    <ellipse cx="730" cy="218" rx="38" ry="40" fill="#66BB6A"/>
    <ellipse cx="730" cy="205" rx="32" ry="33" fill="#81C784"/>
    
    <!-- Duplicates voor seamless loop -->
    <ellipse cx="900" cy="275" rx="45" ry="25" fill="#7CB342" opacity="0.8"/>
    <ellipse cx="930" cy="278" rx="35" ry="20" fill="#8BC34A" opacity="0.8"/>
    
    <rect x="1000" y="220" width="15" height="60" fill="#6D4C41" rx="2"/>
    <ellipse cx="1007" cy="215" rx="35" ry="40" fill="#66BB6A"/>
    <ellipse cx="1007" cy="200" rx="30" ry="35" fill="#81C784"/>
    <ellipse cx="1007" cy="190" rx="25" ry="28" fill="#A5D6A7"/>
    
    <rect x="1300" y="230" width="18" height="50" fill="#6D4C41" rx="2"/>
    <ellipse cx="1309" cy="225" rx="40" ry="45" fill="#66BB6A"/>
    <ellipse cx="1309" cy="208" rx="35" ry="38" fill="#81C784"/>
    <ellipse cx="1309" cy="195" rx="28" ry="30" fill="#A5D6A7"/>
  </g>

  <!-- T-REX DINO (in het midden!) -->
  <g transform="translate(350, 0)">
    <!-- Tail -->
    <g class="tail">
      <path d="M 30,200 Q 10,195 0,190 Q -10,185 -15,180 Q -20,175 -22,165 Q -23,155 -20,145 Q -18,140 -15,138" 
            fill="#7CB342" stroke="#558B2F" stroke-width="3" stroke-linejoin="round"/>
      <path d="M 30,200 Q 15,198 5,193 Q -5,188 -10,183" 
            fill="#9CCC65" stroke="none"/>
    </g>
    
    <!-- Body -->
    <ellipse cx="85" cy="205" rx="55" ry="45" fill="#7CB342" stroke="#558B2F" stroke-width="3"/>
    
    <!-- Belly -->
    <ellipse cx="90" cy="215" rx="40" ry="32" fill="#AED581" opacity="0.8"/>
    
    <!-- Back Spikes -->
    <path d="M 50,180 L 48,165 L 52,180 M 60,175 L 58,160 L 62,175 M 70,173 L 68,158 L 72,173 M 80,172 L 78,160 L 82,172 M 90,173 L 88,162 L 92,173" 
          fill="#558B2F" stroke="#558B2F" stroke-width="2" stroke-linecap="round"/>
    
    <!-- Chest/Shoulder -->
    <ellipse cx="115" cy="195" rx="35" ry="38" fill="#7CB342" stroke="#558B2F" stroke-width="3"/>
    
    <!-- Neck -->
    <path d="M 135,190 Q 155,185 170,175" fill="#7CB342" stroke="#558B2F" stroke-width="3"/>
    <path d="M 138,200 Q 158,198 172,190" fill="#7CB342" stroke="#558B2F" stroke-width="3"/>
    
    <!-- Head -->
    <ellipse cx="180" cy="170" rx="28" ry="25" fill="#7CB342" stroke="#558B2F" stroke-width="3"/>
    
    <!-- Snout -->
    <ellipse cx="205" cy="175" rx="20" ry="15" fill="#8BC34A" stroke="#558B2F" stroke-width="3"/>
    <path d="M 188,175 L 225,175" fill="none" stroke="#558B2F" stroke-width="2"/>
    
    <!-- Jaw Line -->
    <path d="M 185,185 Q 205,188 220,185" fill="none" stroke="#558B2F" stroke-width="3" stroke-linecap="round"/>
    
    <!-- Nostril -->
    <ellipse cx="218" cy="173" rx="3" ry="2" fill="#558B2F"/>
    
    <!-- Eye -->
    <circle cx="188" cy="165" r="7" fill="white" stroke="#2d2d2d" stroke-width="2"/>
    <circle cx="190" cy="164" r="5" fill="#2d2d2d"/>
    <circle cx="191" cy="162" r="2" fill="white"/>
    <path d="M 182,160 Q 188,158 195,160" fill="none" stroke="#558B2F" stroke-width="2" stroke-linecap="round"/>
    
    <!-- Teeth -->
    <line x1="200" y1="180" x2="198" y2="185" stroke="white" stroke-width="3" stroke-linecap="round"/>
    <line x1="206" y1="181" x2="204" y2="186" stroke="white" stroke-width="3" stroke-linecap="round"/>
    <line x1="212" y1="181" x2="210" y2="186" stroke="white" stroke-width="3" stroke-linecap="round"/>
    <line x1="218" y1="181" x2="216" y2="185" stroke="white" stroke-width="3" stroke-linecap="round"/>
    
    <!-- Small Arms -->
    <g>
      <path d="M 125,200 L 128,212 L 130,218" fill="none" stroke="#558B2F" stroke-width="6" stroke-linecap="round"/>
      <path d="M 130,218 L 132,220 L 128,222" fill="none" stroke="#558B2F" stroke-width="3" stroke-linecap="round"/>
    </g>
    
    <g>
      <path d="M 135,202 L 140,214 L 143,220" fill="none" stroke="#558B2F" stroke-width="6" stroke-linecap="round"/>
      <path d="M 143,220 L 145,222 L 141,224" fill="none" stroke="#558B2F" stroke-width="3" stroke-linecap="round"/>
    </g>
    
    <!-- Back Leg -->
    <g class="leg2">
      <path d="M 65,225 L 62,250 L 58,270" fill="none" stroke="#558B2F" stroke-width="12" stroke-linecap="round"/>
      <path d="M 58,270 L 56,275 L 55,280" fill="none" stroke="#558B2F" stroke-width="10" stroke-linecap="round"/>
      <ellipse cx="55" cy="280" rx="15" ry="5" fill="#7CB342" stroke="#558B2F" stroke-width="2"/>
      <line x1="45" y1="280" x2="43" y2="283" stroke="#558B2F" stroke-width="2" stroke-linecap="round"/>
      <line x1="51" y1="280" x2="50" y2="283" stroke="#558B2F" stroke-width="2" stroke-linecap="round"/>
      <line x1="59" y1="280" x2="58" y2="283" stroke="#558B2F" stroke-width="2" stroke-linecap="round"/>
    </g>
    
    <!-- Front Leg -->
    <g class="leg1">
      <path d="M 95,225 L 95,250 L 93,270" fill="none" stroke="#558B2F" stroke-width="12" stroke-linecap="round"/>
      <path d="M 93,270 L 91,275 L 90,280" fill="none" stroke="#558B2F" stroke-width="10" stroke-linecap="round"/>
      <ellipse cx="90" cy="280" rx="15" ry="5" fill="#7CB342" stroke="#558B2F" stroke-width="2"/>
      <line x1="80" y1="280" x2="78" y2="283" stroke="#558B2F" stroke-width="2" stroke-linecap="round"/>
      <line x1="86" y1="280" x2="85" y2="283" stroke="#558B2F" stroke-width="2" stroke-linecap="round"/>
      <line x1="94" y1="280" x2="93" y2="283" stroke="#558B2F" stroke-width="2" stroke-linecap="round"/>
    </g>
  </g>
</svg>
